<svg viewBox="-17.325 -17.5 35 35" xmlns="http://www.w3.org/2000/svg" xmlns:xlink="http://www.w3.org/1999/xlink" version="1.1" class="jsx-2263963463 artboard-inner" style="width: 259px; height: 259px; max-height: 100%;">
    <g transform="translate(-17.325 -17.5) scale(0.3431372549019608)" class="logomark-foreground" id="circle">
        <g fill="#232323">
            <circle vector-effect="non-scaling-stroke" cx="51" cy="51" r="50"></circle>
        </g>
    </g>
    <g transform="translate(-19.95347342055252 -20.00552843917238) scale(0.39506946841105045)" class="logomark-background" id="icon">
        <g fill="#FFFFFF">
            <path d="M57.5 54.688h-15a.937.937 0 1 0 0 1.876h8.438v2.812c0 2.067 1.681 3.75 3.75 3.75s3.75-1.683 3.75-3.75v-3.75a.937.937 0 0 0-.938-.938zm-.938 4.687c0 1.035-.842 1.875-1.875 1.875s-1.875-.84-1.875-1.875v-2.812h3.75v2.812zM42.5 50.938a.938.938 0 0 0 .663-1.6l-1.212-1.212 1.212-1.212a.938.938 0 0 0-1.326-1.326L40.625 46.8l-1.212-1.212a.938.938 0 0 0-1.326 1.326l1.212 1.212-1.212 1.212a.938.938 0 0 0 1.326 1.326l1.212-1.212 1.212 1.212a.94.94 0 0 0 .663.274zM61.913 45.587a.938.938 0 0 0-1.326 0l-1.212 1.212-1.212-1.212a.938.938 0 0 0-1.326 1.326l1.212 1.212-1.212 1.212a.938.938 0 0 0 1.326 1.326l1.212-1.212 1.212 1.212a.936.936 0 0 0 1.326 0 .938.938 0 0 0 0-1.326l-1.212-1.212 1.212-1.212a.938.938 0 0 0 0-1.326z"></path>
            <path d="M75.312 48.125c0-11.889-11.354-21.562-25.312-21.562s-25.312 9.673-25.312 21.562S36.042 69.688 50 69.688c3.215 0 6.35-.507 9.438-1.525.392 0 1.086.439 1.82.906 1.66 1.053 3.937 2.494 7.492 2.494a.943.943 0 0 0 .799-.445.94.94 0 0 0 .04-.912c-1.816-3.631-1.18-7.234-.345-8.067 3.913-3.896 6.068-8.872 6.068-14.014zm-7.391 12.684c-1.425 1.423-1.906 5.16-.628 8.778-2.205-.312-3.749-1.289-5.032-2.102-1.013-.643-1.888-1.198-2.823-1.198-.247 0-.489.041-.718.117A27.287 27.287 0 0 1 50 67.812c-12.924 0-23.438-8.831-23.438-19.688S37.076 28.438 50 28.438s23.438 8.831 23.438 19.688c0 4.637-1.959 9.144-5.517 12.683z"></path>
        </g>
    </g>
</svg>
