<svg viewBox="-198.60000000000002 0 397.20000000000005 100" xmlns="http://www.w3.org/2000/svg" xmlns:xlink="http://www.w3.org/1999/xlink" version="1.1" class="jsx-2263963463 artboard-inner" style="width: 480px; height: 120.846px; max-height: 100%;"><g transform="translate(-201.10000000000002 77.30000000000001) scale(1.3888888888888888)" fill="#232323"><g id="line1"><path d="M26.928-4.752L26.928-2.592C26.928-0.576 26.352 1.152 25.200 2.592C24.048 4.032 22.560 4.752 20.736 4.752C18.048 4.752 15.552 3.864 13.248 2.088C12.528 1.512 11.832 1.224 11.160 1.224C10.488 1.224 9.900 1.416 9.396 1.800C8.892 2.184 8.184 2.880 7.272 3.888C5.832 5.328 5.112 6.984 5.112 8.856C5.112 10.296 6.768 11.904 10.080 13.680C13.392 15.456 16.872 16.344 20.520 16.344C25.320 16.344 29.640 14.652 33.480 11.268C37.320 7.884 39.240 3.432 39.240-2.088L39.240-31.896C39.240-33.000 39.204-33.816 39.132-34.344C39.060-34.872 38.844-35.484 38.484-36.180C38.124-36.876 37.512-37.368 36.648-37.656C35.784-37.944 34.416-38.088 32.544-38.088C30.672-38.088 29.316-37.740 28.476-37.044C27.636-36.348 27.144-35.328 27.000-33.984C26.712-34.416 26.316-34.884 25.812-35.388C25.308-35.892 24.384-36.444 23.040-37.044C21.696-37.644 20.208-37.944 18.576-37.944C14.400-37.944 10.560-36.096 7.056-32.400C3.552-28.704 1.800-24.408 1.800-19.512C1.800-14.616 3.540-10.332 7.020-6.660C10.500-2.988 14.232-1.152 18.216-1.152C22.200-1.152 25.104-2.352 26.928-4.752ZM15.948-15.264C14.724-16.512 14.112-17.916 14.112-19.476C14.112-21.036 14.688-22.464 15.840-23.760C16.992-25.056 18.504-25.704 20.376-25.704C22.248-25.704 23.736-25.044 24.840-23.724C25.944-22.404 26.496-20.988 26.496-19.476C26.496-17.964 25.920-16.572 24.768-15.300C23.616-14.028 22.164-13.392 20.412-13.392C18.660-13.392 17.172-14.016 15.948-15.264Z"></path><path d="M83.412-8.928C81.204-13.920 79.572-17.688 78.516-20.232C82.116-23.736 83.916-28.200 83.916-33.624C83.916-36.744 83.292-39.576 82.044-42.120C80.796-44.664 79.212-46.680 77.292-48.168C73.308-51.240 69.204-52.776 64.980-52.776L49.428-52.776C46.356-52.776 44.484-52.128 43.812-50.832C43.428-50.112 43.200-49.476 43.128-48.924C43.056-48.372 43.020-47.544 43.020-46.440L43.020-6.480C43.020-4.800 43.164-3.552 43.452-2.736C44.028-0.960 45.996-0.072 49.356-0.072C52.428-0.072 54.300-0.720 54.972-2.016C55.356-2.736 55.584-3.372 55.656-3.924C55.728-4.476 55.764-5.304 55.764-6.408L55.764-14.544L64.836-14.544L67.068-14.688C70.332-6.912 72.204-2.568 72.684-1.656C72.972-1.176 73.416-0.708 74.016-0.252C74.616 0.204 75.384 0.432 76.320 0.432C77.256 0.432 78.492 0.096 80.028-0.576C83.004-1.824 84.492-3.360 84.492-5.184C84.492-5.952 84.132-7.200 83.412-8.928ZM55.764-27.288L55.764-40.032L64.836-40.032C66.324-40.032 67.764-39.492 69.156-38.412C70.548-37.332 71.244-35.736 71.244-33.624C71.244-31.512 70.548-29.928 69.156-28.872C67.764-27.816 66.372-27.288 64.980-27.288Z"></path><path d="M127.296-33.624C127.296-36.744 126.672-39.576 125.424-42.120C124.176-44.664 122.568-46.680 120.600-48.168C116.616-51.240 112.512-52.776 108.288-52.776L92.880-52.776C89.808-52.776 87.936-52.128 87.264-50.832C86.880-50.112 86.652-49.476 86.580-48.924C86.508-48.372 86.472-47.544 86.472-46.440L86.472-6.480C86.472-4.800 86.616-3.552 86.904-2.736C87.480-0.960 89.448-0.072 92.808-0.072C95.880-0.072 97.752-0.720 98.424-2.016C98.808-2.736 99.036-3.372 99.108-3.924C99.180-4.476 99.216-5.304 99.216-6.408L99.216-14.544L108.216-14.544C112.488-14.544 116.616-16.080 120.600-19.152C122.568-20.640 124.176-22.644 125.424-25.164C126.672-27.684 127.296-30.504 127.296-33.624ZM112.536-28.872C111.144-27.816 109.728-27.288 108.288-27.288L99.216-27.288L99.216-40.032L108.216-40.032C109.704-40.032 111.144-39.492 112.536-38.412C113.928-37.332 114.624-35.736 114.624-33.624C114.624-31.512 113.928-29.928 112.536-28.872Z"></path><path d="M162.972-13.824C162.396-13.440 161.448-13.056 160.128-12.672C158.808-12.288 157.404-12.096 155.916-12.096C152.748-12.096 149.700-13.152 146.772-15.264C145.284-16.368 144.060-17.880 143.100-19.800C142.140-21.720 141.660-23.892 141.660-26.316C141.660-28.740 142.140-30.912 143.100-32.832C144.060-34.752 145.260-36.240 146.700-37.296C149.724-39.456 152.796-40.536 155.916-40.536C159.276-40.536 161.964-39.720 163.980-38.088C165.564-37.032 166.788-36.504 167.652-36.504C169.140-36.504 170.820-37.800 172.692-40.392C173.700-41.784 174.204-43.116 174.204-44.388C174.204-45.660 173.580-46.800 172.332-47.808C171.852-48.144 171.180-48.576 170.316-49.104L168.588-50.112C167.388-50.832 165.624-51.540 163.296-52.236C160.968-52.932 158.676-53.280 156.420-53.280C151.668-53.280 146.940-51.984 142.236-49.392C139.740-48.048 137.520-46.380 135.576-44.388C133.632-42.396 132.036-39.876 130.788-36.828C129.540-33.780 128.916-30.384 128.916-26.640C128.916-22.896 129.552-19.428 130.824-16.236C132.096-13.044 133.716-10.428 135.684-8.388C137.652-6.348 139.872-4.620 142.344-3.204C144.816-1.788 147.216-0.780 149.544-0.180C151.872 0.420 154.176 0.720 156.456 0.720C158.736 0.720 161.100 0.336 163.548-0.432C165.996-1.200 167.616-1.824 168.408-2.304C169.200-2.784 170.028-3.288 170.892-3.816C171.756-4.344 172.512-4.944 173.160-5.616C173.808-6.288 174.132-7.128 174.132-8.136C174.132-9.144 173.604-10.488 172.548-12.168C170.820-14.856 169.212-16.200 167.724-16.200C167.052-16.200 165.900-15.720 164.268-14.760Z"></path><path d="M197.928-37.800C194.712-37.800 191.904-36.336 189.504-33.408L189.504-49.320C189.504-50.424 189.468-51.252 189.396-51.804C189.324-52.356 189.096-52.992 188.712-53.712C188.088-55.008 186.264-55.656 183.240-55.656C180.168-55.656 178.296-55.008 177.624-53.712C177.288-53.040 177.084-52.428 177.012-51.876C176.940-51.324 176.904-50.496 176.904-49.392L176.904-6.336C176.904-5.184 176.940-4.344 177.012-3.816C177.084-3.288 177.288-2.664 177.624-1.944C178.296-0.648 180.144 0 183.168 0C186.240 0 188.088-0.624 188.712-1.872C189.096-2.592 189.324-3.228 189.396-3.780C189.468-4.332 189.504-5.160 189.504-6.264L189.504-20.232C189.696-21.528 190.440-22.692 191.736-23.724C193.032-24.756 194.532-25.272 196.236-25.272C197.940-25.272 199.344-24.720 200.448-23.616C201.552-22.512 202.104-20.976 202.104-19.008L202.104-6.408C202.104-5.256 202.140-4.392 202.212-3.816C202.284-3.240 202.512-2.592 202.896-1.872C203.616-0.624 205.440 0 208.368 0C211.440 0 213.288-0.624 213.912-1.872C214.296-2.592 214.524-3.228 214.596-3.780C214.668-4.332 214.704-5.160 214.704-6.264L214.704-18.936C214.704-24.216 213.108-28.680 209.916-32.328C206.724-35.976 202.728-37.800 197.928-37.800Z"></path><path d="M243.108-33.912C242.772-34.392 242.340-34.884 241.812-35.388C241.284-35.892 240.348-36.432 239.004-37.008C237.660-37.584 236.172-37.872 234.540-37.872C230.268-37.872 226.344-35.988 222.768-32.220C219.192-28.452 217.404-24.060 217.404-19.044C217.404-14.028 219.180-9.624 222.732-5.832C226.284-2.040 230.136-0.144 234.288-0.144C238.440-0.144 241.404-1.416 243.180-3.960C243.324-2.712 243.840-1.764 244.728-1.116C245.616-0.468 247.368-0.144 249.984-0.144C252.600-0.144 254.244-0.768 254.916-2.016C255.252-2.736 255.456-3.372 255.528-3.924C255.600-4.476 255.636-5.304 255.636-6.408L255.636-31.608C255.636-32.712 255.600-33.540 255.528-34.092C255.456-34.644 255.240-35.280 254.880-36.000C254.520-36.720 253.884-37.224 252.972-37.512C252.060-37.800 250.668-37.944 248.796-37.944C245.292-37.944 243.396-36.600 243.108-33.912ZM231.876-14.652C230.628-15.924 230.004-17.352 230.004-18.936C230.004-20.520 230.592-21.984 231.768-23.328C232.944-24.672 234.480-25.344 236.376-25.344C238.272-25.344 239.784-24.672 240.912-23.328C242.040-21.984 242.604-20.532 242.604-18.972C242.604-17.412 242.016-15.984 240.840-14.688C239.664-13.392 238.188-12.744 236.412-12.744C234.636-12.744 233.124-13.380 231.876-14.652Z"></path><path d="M281.448-25.200C282.552-25.200 283.380-25.236 283.932-25.308C284.484-25.380 285.120-25.584 285.840-25.920C287.136-26.592 287.784-28.440 287.784-31.464C287.784-34.536 287.160-36.384 285.912-37.008C285.192-37.392 284.556-37.620 284.004-37.692C283.452-37.764 282.636-37.800 281.556-37.800C280.476-37.800 278.880-37.704 276.768-37.512L276.768-44.568C276.768-46.248 276.648-47.472 276.408-48.240C275.784-50.016 273.840-50.904 270.576-50.904C267.504-50.904 265.656-50.304 265.032-49.104C264.648-48.480 264.420-47.904 264.348-47.376C264.276-46.848 264.240-46.032 264.240-44.928L264.240-37.512L261.864-37.800C260.712-37.800 259.752-37.488 258.984-36.864C258.552-36.480 258.216-35.844 257.976-34.956C257.736-34.068 257.616-32.640 257.616-30.672C257.616-28.704 257.964-27.312 258.660-26.496C259.356-25.680 260.232-25.272 261.288-25.272C262.344-25.272 263.328-25.344 264.240-25.488L264.240-14.832C264.240-9.456 265.536-5.640 268.128-3.384C270.720-1.128 274.512 0 279.504 0C280.560 0 281.364-0.036 281.916-0.108C282.468-0.180 283.104-0.384 283.824-0.720C285.168-1.392 285.840-3.240 285.840-6.264C285.840-8.856 285.288-10.464 284.184-11.088C283.512-11.472 282.876-11.700 282.276-11.772C281.676-11.844 280.812-11.880 279.684-11.880C278.556-11.880 277.788-12.168 277.380-12.744C276.972-13.320 276.768-14.256 276.768-15.552L276.768-25.488Z"></path></g></g></svg>