<svg viewBox="-206.85000000000002 -213.87031226428476 413.70000000000005 313.87031226428473" xmlns="http://www.w3.org/2000/svg" xmlns:xlink="http://www.w3.org/1999/xlink" version="1.1" class="jsx-2263963463 artboard-inner" style="width: 253.068px; height: 192px; max-height: 100%;">
    <g transform="translate(-209.35000000000002 77.30000000000001) scale(1.3888888888888888)" fill="#232323">
        <g id="line1">
            <path d="M26.928-4.752L26.928-2.592C26.928-0.576 26.352 1.152 25.200 2.592C24.048 4.032 22.560 4.752 20.736 4.752C18.048 4.752 15.552 3.864 13.248 2.088C12.528 1.512 11.832 1.224 11.160 1.224C10.488 1.224 9.900 1.416 9.396 1.800C8.892 2.184 8.184 2.880 7.272 3.888C5.832 5.328 5.112 6.984 5.112 8.856C5.112 10.296 6.768 11.904 10.080 13.680C13.392 15.456 16.872 16.344 20.520 16.344C25.320 16.344 29.640 14.652 33.480 11.268C37.320 7.884 39.240 3.432 39.240-2.088L39.240-31.896C39.240-33.000 39.204-33.816 39.132-34.344C39.060-34.872 38.844-35.484 38.484-36.180C38.124-36.876 37.512-37.368 36.648-37.656C35.784-37.944 34.416-38.088 32.544-38.088C30.672-38.088 29.316-37.740 28.476-37.044C27.636-36.348 27.144-35.328 27.000-33.984C26.712-34.416 26.316-34.884 25.812-35.388C25.308-35.892 24.384-36.444 23.040-37.044C21.696-37.644 20.208-37.944 18.576-37.944C14.400-37.944 10.560-36.096 7.056-32.400C3.552-28.704 1.800-24.408 1.800-19.512C1.800-14.616 3.540-10.332 7.020-6.660C10.500-2.988 14.232-1.152 18.216-1.152C22.200-1.152 25.104-2.352 26.928-4.752ZM15.948-15.264C14.724-16.512 14.112-17.916 14.112-19.476C14.112-21.036 14.688-22.464 15.840-23.760C16.992-25.056 18.504-25.704 20.376-25.704C22.248-25.704 23.736-25.044 24.840-23.724C25.944-22.404 26.496-20.988 26.496-19.476C26.496-17.964 25.920-16.572 24.768-15.300C23.616-14.028 22.164-13.392 20.412-13.392C18.660-13.392 17.172-14.016 15.948-15.264Z"></path>
            <path d="M85.392-8.928C83.184-13.920 81.552-17.688 80.496-20.232C84.096-23.736 85.896-28.200 85.896-33.624C85.896-36.744 85.272-39.576 84.024-42.120C82.776-44.664 81.192-46.680 79.272-48.168C75.288-51.240 71.184-52.776 66.960-52.776L51.408-52.776C48.336-52.776 46.464-52.128 45.792-50.832C45.408-50.112 45.180-49.476 45.108-48.924C45.036-48.372 45.000-47.544 45.000-46.440L45.000-6.480C45.000-4.800 45.144-3.552 45.432-2.736C46.008-0.960 47.976-0.072 51.336-0.072C54.408-0.072 56.280-0.720 56.952-2.016C57.336-2.736 57.564-3.372 57.636-3.924C57.708-4.476 57.744-5.304 57.744-6.408L57.744-14.544L66.816-14.544L69.048-14.688C72.312-6.912 74.184-2.568 74.664-1.656C74.952-1.176 75.396-0.708 75.996-0.252C76.596 0.204 77.364 0.432 78.300 0.432C79.236 0.432 80.472 0.096 82.008-0.576C84.984-1.824 86.472-3.360 86.472-5.184C86.472-5.952 86.112-7.200 85.392-8.928ZM57.744-27.288L57.744-40.032L66.816-40.032C68.304-40.032 69.744-39.492 71.136-38.412C72.528-37.332 73.224-35.736 73.224-33.624C73.224-31.512 72.528-29.928 71.136-28.872C69.744-27.816 68.352-27.288 66.960-27.288Z"></path>
            <path d="M131.256-33.624C131.256-36.744 130.632-39.576 129.384-42.120C128.136-44.664 126.528-46.680 124.560-48.168C120.576-51.240 116.472-52.776 112.248-52.776L96.840-52.776C93.768-52.776 91.896-52.128 91.224-50.832C90.840-50.112 90.612-49.476 90.540-48.924C90.468-48.372 90.432-47.544 90.432-46.440L90.432-6.480C90.432-4.800 90.576-3.552 90.864-2.736C91.440-0.960 93.408-0.072 96.768-0.072C99.840-0.072 101.712-0.720 102.384-2.016C102.768-2.736 102.996-3.372 103.068-3.924C103.140-4.476 103.176-5.304 103.176-6.408L103.176-14.544L112.176-14.544C116.448-14.544 120.576-16.080 124.560-19.152C126.528-20.640 128.136-22.644 129.384-25.164C130.632-27.684 131.256-30.504 131.256-33.624ZM116.496-28.872C115.104-27.816 113.688-27.288 112.248-27.288L103.176-27.288L103.176-40.032L112.176-40.032C113.664-40.032 115.104-39.492 116.496-38.412C117.888-37.332 118.584-35.736 118.584-33.624C118.584-31.512 117.888-29.928 116.496-28.872Z"></path>
            <path d="M168.912-13.824C168.336-13.440 167.388-13.056 166.068-12.672C164.748-12.288 163.344-12.096 161.856-12.096C158.688-12.096 155.640-13.152 152.712-15.264C151.224-16.368 150.000-17.880 149.040-19.800C148.080-21.720 147.600-23.892 147.600-26.316C147.600-28.740 148.080-30.912 149.040-32.832C150.000-34.752 151.200-36.240 152.640-37.296C155.664-39.456 158.736-40.536 161.856-40.536C165.216-40.536 167.904-39.720 169.920-38.088C171.504-37.032 172.728-36.504 173.592-36.504C175.080-36.504 176.760-37.800 178.632-40.392C179.640-41.784 180.144-43.116 180.144-44.388C180.144-45.660 179.520-46.800 178.272-47.808C177.792-48.144 177.120-48.576 176.256-49.104L174.528-50.112C173.328-50.832 171.564-51.540 169.236-52.236C166.908-52.932 164.616-53.280 162.360-53.280C157.608-53.280 152.880-51.984 148.176-49.392C145.680-48.048 143.460-46.380 141.516-44.388C139.572-42.396 137.976-39.876 136.728-36.828C135.480-33.780 134.856-30.384 134.856-26.640C134.856-22.896 135.492-19.428 136.764-16.236C138.036-13.044 139.656-10.428 141.624-8.388C143.592-6.348 145.812-4.620 148.284-3.204C150.756-1.788 153.156-0.780 155.484-0.180C157.812 0.420 160.116 0.720 162.396 0.720C164.676 0.720 167.040 0.336 169.488-0.432C171.936-1.200 173.556-1.824 174.348-2.304C175.140-2.784 175.968-3.288 176.832-3.816C177.696-4.344 178.452-4.944 179.100-5.616C179.748-6.288 180.072-7.128 180.072-8.136C180.072-9.144 179.544-10.488 178.488-12.168C176.760-14.856 175.152-16.200 173.664-16.200C172.992-16.200 171.840-15.720 170.208-14.760Z"></path>
            <path d="M205.848-37.800C202.632-37.800 199.824-36.336 197.424-33.408L197.424-49.320C197.424-50.424 197.388-51.252 197.316-51.804C197.244-52.356 197.016-52.992 196.632-53.712C196.008-55.008 194.184-55.656 191.160-55.656C188.088-55.656 186.216-55.008 185.544-53.712C185.208-53.040 185.004-52.428 184.932-51.876C184.860-51.324 184.824-50.496 184.824-49.392L184.824-6.336C184.824-5.184 184.860-4.344 184.932-3.816C185.004-3.288 185.208-2.664 185.544-1.944C186.216-0.648 188.064 0 191.088 0C194.160 0 196.008-0.624 196.632-1.872C197.016-2.592 197.244-3.228 197.316-3.780C197.388-4.332 197.424-5.160 197.424-6.264L197.424-20.232C197.616-21.528 198.360-22.692 199.656-23.724C200.952-24.756 202.452-25.272 204.156-25.272C205.860-25.272 207.264-24.720 208.368-23.616C209.472-22.512 210.024-20.976 210.024-19.008L210.024-6.408C210.024-5.256 210.060-4.392 210.132-3.816C210.204-3.240 210.432-2.592 210.816-1.872C211.536-0.624 213.360 0 216.288 0C219.360 0 221.208-0.624 221.832-1.872C222.216-2.592 222.444-3.228 222.516-3.780C222.588-4.332 222.624-5.160 222.624-6.264L222.624-18.936C222.624-24.216 221.028-28.680 217.836-32.328C214.644-35.976 210.648-37.800 205.848-37.800Z"></path>
            <path d="M253.008-33.912C252.672-34.392 252.240-34.884 251.712-35.388C251.184-35.892 250.248-36.432 248.904-37.008C247.560-37.584 246.072-37.872 244.440-37.872C240.168-37.872 236.244-35.988 232.668-32.220C229.092-28.452 227.304-24.060 227.304-19.044C227.304-14.028 229.080-9.624 232.632-5.832C236.184-2.040 240.036-0.144 244.188-0.144C248.340-0.144 251.304-1.416 253.080-3.960C253.224-2.712 253.740-1.764 254.628-1.116C255.516-0.468 257.268-0.144 259.884-0.144C262.500-0.144 264.144-0.768 264.816-2.016C265.152-2.736 265.356-3.372 265.428-3.924C265.500-4.476 265.536-5.304 265.536-6.408L265.536-31.608C265.536-32.712 265.500-33.540 265.428-34.092C265.356-34.644 265.140-35.280 264.780-36.000C264.420-36.720 263.784-37.224 262.872-37.512C261.960-37.800 260.568-37.944 258.696-37.944C255.192-37.944 253.296-36.600 253.008-33.912ZM241.776-14.652C240.528-15.924 239.904-17.352 239.904-18.936C239.904-20.520 240.492-21.984 241.668-23.328C242.844-24.672 244.380-25.344 246.276-25.344C248.172-25.344 249.684-24.672 250.812-23.328C251.940-21.984 252.504-20.532 252.504-18.972C252.504-17.412 251.916-15.984 250.740-14.688C249.564-13.392 248.088-12.744 246.312-12.744C244.536-12.744 243.024-13.380 241.776-14.652Z"></path>
            <path d="M293.328-25.200C294.432-25.200 295.260-25.236 295.812-25.308C296.364-25.380 297.000-25.584 297.720-25.920C299.016-26.592 299.664-28.440 299.664-31.464C299.664-34.536 299.040-36.384 297.792-37.008C297.072-37.392 296.436-37.620 295.884-37.692C295.332-37.764 294.516-37.800 293.436-37.800C292.356-37.800 290.760-37.704 288.648-37.512L288.648-44.568C288.648-46.248 288.528-47.472 288.288-48.240C287.664-50.016 285.720-50.904 282.456-50.904C279.384-50.904 277.536-50.304 276.912-49.104C276.528-48.480 276.300-47.904 276.228-47.376C276.156-46.848 276.120-46.032 276.120-44.928L276.120-37.512L273.744-37.800C272.592-37.800 271.632-37.488 270.864-36.864C270.432-36.480 270.096-35.844 269.856-34.956C269.616-34.068 269.496-32.640 269.496-30.672C269.496-28.704 269.844-27.312 270.540-26.496C271.236-25.680 272.112-25.272 273.168-25.272C274.224-25.272 275.208-25.344 276.120-25.488L276.120-14.832C276.120-9.456 277.416-5.640 280.008-3.384C282.600-1.128 286.392 0 291.384 0C292.440 0 293.244-0.036 293.796-0.108C294.348-0.180 294.984-0.384 295.704-0.720C297.048-1.392 297.720-3.240 297.720-6.264C297.720-8.856 297.168-10.464 296.064-11.088C295.392-11.472 294.756-11.700 294.156-11.772C293.556-11.844 292.692-11.880 291.564-11.880C290.436-11.880 289.668-12.168 289.260-12.744C288.852-13.320 288.648-14.256 288.648-15.552L288.648-25.488Z"></path>
        </g>
    </g>
    <g transform="translate(-204.3003140546847 -322.4069042674062) scale(4.086006592831257)" id="logomark">
        <g fill="#232323">
            <ellipse cx="40.625" cy="47.188" rx="1.875" ry="2.812"></ellipse>
            <ellipse cx="59.375" cy="47.188" rx="1.875" ry="2.812"></ellipse>
            <path d="M59.375 51.875h-18.75a1.875 1.875 0 0 0-1.805 2.377c.078.285 2.049 6.998 11.18 6.998 9.133 0 11.102-6.713 11.182-6.998a1.875 1.875 0 0 0-1.807-2.377z"></path>
            <path d="M75.312 48.125c0-11.889-11.354-21.562-25.312-21.562s-25.312 9.673-25.312 21.562S36.042 69.688 50 69.688c3.215 0 6.35-.507 9.438-1.525.392 0 1.085.439 1.82.906 1.661 1.053 3.937 2.494 7.493 2.494a.94.94 0 0 0 .839-1.357c-1.816-3.631-1.18-7.234-.345-8.067 3.912-3.896 6.067-8.872 6.067-14.014zM67.92 60.809c-1.424 1.423-1.906 5.16-.628 8.778-2.205-.312-3.748-1.289-5.032-2.102-1.013-.643-1.888-1.198-2.823-1.198-.248 0-.489.041-.718.117a27.283 27.283 0 0 1-8.72 1.408c-12.924 0-23.438-8.831-23.438-19.688S37.076 28.438 50 28.438s23.438 8.831 23.438 19.688c0 4.637-1.959 9.144-5.518 12.683z"></path>
        </g>
    </g>
</svg>
