<svg viewBox="-17.325 -17.5 35 35" xmlns="http://www.w3.org/2000/svg" xmlns:xlink="http://www.w3.org/1999/xlink" version="1.1" class="jsx-2263963463 artboard-inner" style="width: 259px; height: 259px; max-height: 100%;">
    <g transform="translate(-17.325 -17.5) scale(0.3431372549019608)" class="logomark-foreground" id="circle">
        <g fill="#232323">
            <circle vector-effect="non-scaling-stroke" cx="51" cy="51" r="50"></circle>
        </g>
    </g>
    <g transform="translate(-19.75347489046987 -20.272203408119704) scale(0.39506952795081035)" class="logomark-background" id="icon">
        <g fill="#FFFFFF">
            <ellipse cx="40.625" cy="47.188" rx="1.875" ry="2.812"></ellipse>
            <ellipse cx="59.375" cy="47.188" rx="1.875" ry="2.812"></ellipse>
            <path d="M59.375 51.875h-18.75a1.875 1.875 0 0 0-1.805 2.377c.078.285 2.049 6.998 11.18 6.998 9.133 0 11.102-6.713 11.182-6.998a1.875 1.875 0 0 0-1.807-2.377z"></path>
            <path d="M75.312 48.125c0-11.889-11.354-21.562-25.312-21.562s-25.312 9.673-25.312 21.562S36.042 69.688 50 69.688c3.215 0 6.35-.507 9.438-1.525.392 0 1.085.439 1.82.906 1.661 1.053 3.937 2.494 7.493 2.494a.94.94 0 0 0 .839-1.357c-1.816-3.631-1.18-7.234-.345-8.067 3.912-3.896 6.067-8.872 6.067-14.014zM67.92 60.809c-1.424 1.423-1.906 5.16-.628 8.778-2.205-.312-3.748-1.289-5.032-2.102-1.013-.643-1.888-1.198-2.823-1.198-.248 0-.489.041-.718.117a27.283 27.283 0 0 1-8.72 1.408c-12.924 0-23.438-8.831-23.438-19.688S37.076 28.438 50 28.438s23.438 8.831 23.438 19.688c0 4.637-1.959 9.144-5.518 12.683z"></path>
        </g>
    </g>
</svg>
