<svg viewBox="-17.325 -17.5 35 35" xmlns="http://www.w3.org/2000/svg" xmlns:xlink="http://www.w3.org/1999/xlink" version="1.1" class="jsx-2263963463 artboard-inner" style="width: 259px; height: 259px; max-height: 100%;">
    <g transform="translate(-17.325 -17.5) scale(0.3431372549019608)" class="logomark-foreground" id="circle">
        <g fill="#232323">
            <circle vector-effect="non-scaling-stroke" cx="51" cy="51" r="50"></circle>
        </g>
    </g>
    <g transform="translate(-19.85347489046987 -19.916640802822563) scale(0.39506952795081035)" class="logomark-background" id="icon">
        <g fill="#FFFFFF">
            <path d="M55.625 52.812a.937.937 0 0 0-.938.938c0 2.585-2.102 4.688-4.688 4.688s-4.688-2.102-4.688-4.688a.937.937 0 1 0-1.876 0c0 3.618 2.944 6.562 6.562 6.562s6.562-2.944 6.562-6.562a.933.933 0 0 0-.934-.938zM42.5 47.188h-3.75a.937.937 0 1 0 0 1.876h3.75a.937.937 0 1 0 0-1.876zM61.25 47.188H57.5a.937.937 0 1 0 0 1.876h3.75a.937.937 0 1 0 0-1.876z"></path>
            <path d="M75.312 48.125c0-11.889-11.354-21.562-25.312-21.562s-25.312 9.673-25.312 21.562S36.042 69.688 50 69.688c3.215 0 6.35-.507 9.438-1.525.392 0 1.085.439 1.82.906 1.661 1.053 3.937 2.494 7.493 2.494a.94.94 0 0 0 .839-1.357c-1.816-3.631-1.18-7.234-.345-8.067 3.912-3.896 6.067-8.872 6.067-14.014zM67.92 60.809c-1.424 1.423-1.906 5.16-.628 8.778-2.205-.312-3.748-1.289-5.032-2.102-1.013-.643-1.888-1.198-2.823-1.198-.248 0-.489.041-.718.117a27.283 27.283 0 0 1-8.72 1.408c-12.924 0-23.438-8.831-23.438-19.688S37.076 28.438 50 28.438s23.438 8.831 23.438 19.688c0 4.637-1.959 9.144-5.518 12.683z"></path>
        </g>
    </g>
</svg>
